<svg xmlns="http://www.w3.org/2000/svg" viewBox="0 0 512 512">
  <path fill="#FFD700" d="M256 32C167.6 32 96 103.6 96 192v128c0 35.3-28.7 64-64 64v32h448v-32c-35.3 0-64-28.7-64-64V192c0-88.4-71.6-160-160-160z"/>
  <path fill="#DAA520" d="M256 32c-13.3 0-24 10.7-24 24v136c0 13.3 10.7 24 24 24s24-10.7 24-24V56c0-13.3-10.7-24-24-24z"/>
  <circle cx="256" cy="448" r="48" fill="#DAA520"/>
  <path fill="#C0392B" d="M256 64c-17.7 0-32 14.3-32 32s14.3 32 32 32 32-14.3 32-32-14.3-32-32-32z"/>
  <path fill="#E74C3C" d="M288 96c0 17.7-14.3 32-32 32s-32-14.3-32-32 14.3-32 32-32 32 14.3 32 32z" transform="translate(-15, 15)"/>
</svg>