<svg xmlns="http://www.w3.org/2000/svg" viewBox="0 0 512 512"><!--!Font Awesome Free 6.5.1 by @fontawesome - https://fontawesome.com License - https://fontawesome.com/license/free Copyright 2024 Fonticons, Inc.--><path d="M440.6 371.4L389.1 320 440.6 268.6c6.2-6.2 6.2-16.4 0-22.6s-16.4-6.2-22.6 0L366.6 297.4 320 250.8V184l46.9-46.9c6.2-6.2 6.2-16.4 0-22.6s-16.4-6.2-22.6 0L297.4 161.4 268.6 132.6V64h24c8.8 0 16-7.2 16-16s-7.2-16-16-16H219.4c-8.8 0-16 7.2-16 16s7.2 16 16 16h24v68.6L214.6 161.4 167.7 114.5c-6.2-6.2-16.4-6.2-22.6 0s-6.2 16.4 0 22.6L192 184v66.8L145.4 297.4 94 246c-6.2-6.2-16.4-6.2-22.6 0s-6.2 16.4 0 22.6L122.9 320 71.4 371.4c-6.2 6.2-6.2 16.4 0 22.6s16.4 6.2 22.6 0L145.4 342.6 192 296v66.8l-46.9 46.9c-6.2 6.2-6.2 16.4 0 22.6s16.4 6.2 22.6 0L214.6 385.4 243.4 414.2V480H219.4c-8.8 0-16 7.2-16 16s7.2 16 16 16h73.1c8.8 0 16-7.2 16-16s-7.2-16-16-16H268.6V414.2l28.8-28.8 46.9 46.9c6.2 6.2 16.4 6.2 22.6 0s6.2-16.4 0-22.6L320 362.8V296l46.6 46.6 51.4 51.4c6.2 6.2 16.4 6.2 22.6 0s6.2-16.4 0-22.6zM256 288a32 32 0 1 1 0-64 32 32 0 1 1 0 64z"/></svg>